# Blender v2.79 (sub 0) OBJ File: 'block.blend'
# www.blender.org
o Cube_Cube.001
v -0.956917 -1.133645 0.829421
v -0.956917 0.866355 0.829421
v -0.956917 -1.133645 -1.170579
v -0.956917 0.866355 -1.170579
v 1.043083 -1.133645 0.829421
v 1.043083 0.866355 0.829421
v 1.043083 -1.133645 -1.170579
v 1.043083 0.866355 -1.170579
v -0.956917 -1.133645 -1.170579
v -0.956917 -1.133645 -1.170579
v -0.956917 -1.133645 0.829421
v -0.956917 -1.133645 0.829421
v -0.956917 0.866355 0.829421
v -0.956917 0.866355 -1.170579
vt 0.611333 0.250189
vt 0.361376 0.000233
vt 0.611333 0.000233
vt 0.111419 0.500146
vt 0.361376 0.750103
vt 0.111419 0.750103
vt 0.361376 0.500146
vt 0.611333 0.750103
vt 0.611333 0.500146
vt 0.861290 0.750103
vt 0.611333 1.000059
vt 0.361376 1.000059
vt 0.361376 0.250189
vt 0.861290 0.500146
vn -0.7071 0.7071 0.0000
vn -1.0000 0.0000 0.0000
vn 0.0000 0.0000 -1.0000
vn 0.5773 -0.5773 -0.5773
vn 0.5773 0.5773 -0.5773
vn 0.5773 -0.5773 0.5773
vn 0.5773 0.5773 0.5773
vn 0.0000 0.0000 1.0000
vn 0.0000 -1.0000 0.0000
s 1
f 13/1/1 9/2/2 11/3/2
f 4/4/3 7/5/4 10/6/3
f 8/7/5 5/8/6 7/5/4
f 6/9/7 12/10/8 5/8/6
f 7/5/4 1/11/9 3/12/9
f 14/13/1 6/9/7 8/7/5
f 13/1/1 14/13/1 9/2/2
f 4/4/3 8/7/5 7/5/4
f 8/7/5 6/9/7 5/8/6
f 6/9/7 2/14/8 12/10/8
f 7/5/4 5/8/6 1/11/9
f 14/13/1 13/1/1 6/9/7
